<svg xmlns="http://www.w3.org/2000/svg" viewBox="0 0 32 32">
  <defs>
    <linearGradient id="bg" x1="0%" y1="0%" x2="100%" y2="100%">
      <stop offset="0%" style="stop-color:#6366f1"/>
      <stop offset="100%" style="stop-color:#8b5cf6"/>
    </linearGradient>
  </defs>
  <!-- 圆角背景 -->
  <rect width="32" height="32" rx="7" fill="url(#bg)"/>
  <!-- 日历顶部横条 -->
  <rect x="4" y="6" width="24" height="6" rx="1.5" fill="rgba(255,255,255,0.25)"/>
  <!-- 日历挂钩 -->
  <rect x="9" y="4" width="2.5" height="5" rx="1.25" fill="white"/>
  <rect x="20.5" y="4" width="2.5" height="5" rx="1.25" fill="white"/>
  <!-- 爱心 -->
  <path d="M16 25.5 C16 25.5 8 20 8 16 C8 13.5 10 12 12 12 C13.5 12 15 13 16 14.5 C17 13 18.5 12 20 12 C22 12 24 13.5 24 16 C24 20 16 25.5 16 25.5Z" fill="white" opacity="0.95"/>
</svg>
